<?xml version="1.0" encoding="utf-8"?>
<!-- Generator: Adobe Illustrator 21.1.0, SVG Export Plug-In . SVG Version: 6.00 Build 0)  -->
<svg version="1.1" id="Capa_1" xmlns="http://www.w3.org/2000/svg" xmlns:xlink="http://www.w3.org/1999/xlink" x="0px" y="0px"
	viewBox="0 0 512 405.3" style="enable-background:new 0 0 512 405.3;" xml:space="preserve">
	<style type="text/css">
		.st0{fill:#ffffff;}
	</style>
	<g>
		<g>
			<path class="st0" d="M362.7,362.6c0-8.7-2.7-16.9-7.2-23.7c16.6-5.9,28.5-21.7,28.5-40.3c0-8.7-2.7-16.9-7.2-23.7
				c16.6-5.9,28.5-21.7,28.5-40.3c0-7.7-2.1-15-5.7-21.3h69.7c23.6,0,42.8-19.1,42.8-42.7s-19.2-42.7-42.7-42.7H220l29.3-58.6
				c4.4-8.8,6.7-18.7,6.7-28.6C256,18.3,237.7,0,215.1,0c-10.9,0-21.1,4.2-28.8,11.9L48.4,149.8C17.2,181,0,222.5,0,266.6
				c0,76.5,62.2,138.7,138.7,138.7H320C343.5,405.3,362.7,386.2,362.7,362.6z M138.7,384C74,384,21.3,331.3,21.4,266.6
				c0-38.5,14.9-74.6,42.1-101.7l137.9-138c3.6-3.7,8.5-5.7,13.8-5.7c10.7,0,19.4,8.7,19.4,19.4c0,6.6-1.6,13.2-4.5,19.1l-37,74.1
				c-1.6,3.3-1.4,7.3,0.5,10.4c2,3.2,5.4,5.1,9.1,5.1h266.7c11.7,0,21.3,9.6,21.3,21.3s-9.5,21.3-21.3,21.3H266.7
				c-5.9,0-10.7,4.8-10.7,10.7s4.8,10.7,10.7,10.7h96c11.7,0,21.3,9.6,21.3,21.3s-9.5,21.3-21.3,21.3h-96c-5.9,0-10.7,4.8-10.7,10.7
				c0,5.9,4.8,10.7,10.7,10.7h74.7c11.7,0,21.3,9.6,21.3,21.3c0,11.7-9.5,21.3-21.3,21.3h-74.7c-5.9,0-10.7,4.8-10.7,10.7
				c0,5.9,4.8,10.7,10.7,10.7H320c11.8,0,21.3,9.7,21.3,21.4c0,11.7-9.5,21.3-21.3,21.3H138.7z"/>
			</g>
		</g>
	</svg>
